<?xml version="1.0" encoding="UTF-8"?>
<svg id="Layer_2" data-name="Layer 2" xmlns="http://www.w3.org/2000/svg" xmlns:xlink="http://www.w3.org/1999/xlink" viewBox="0 0 343.01 53.07">
  <defs>
    <style>
      .cls-1 {
        fill: url(#linear-gradient-2);
      }

      .cls-2 {
        fill: #171717;
      }

      .cls-3 {
        fill: url(#linear-gradient);
      }

      .cls-4 {
        fill: #a03433;
      }
    </style>
    <linearGradient id="linear-gradient" x1="188.09" y1="42.28" x2="188.09" y2="27.19" gradientUnits="userSpaceOnUse">
      <stop offset=".16" stop-color="#e75625"/>
      <stop offset=".3" stop-color="#e85e23"/>
      <stop offset=".53" stop-color="#ed7421"/>
      <stop offset=".8" stop-color="#f6991c"/>
      <stop offset="1" stop-color="#fdb719"/>
    </linearGradient>
    <linearGradient id="linear-gradient-2" x1="-384.5" x2="-384.5" gradientTransform="translate(-228.64) rotate(-180) scale(1 -1)" xlink:href="#linear-gradient"/>
  </defs>
  <g id="Layer_1-2" data-name="Layer 1">
    <g>
      <path class="cls-4" d="M171.52.07c.57-.17,1.2-.02,1.66.35,2.21,1.78,4.4,3.59,6.63,5.36-.04-.64-.01-1.29-.03-1.94,0-.33-.04-.68.09-.99.16-.29.5-.42.82-.46,1.43,0,2.86,0,4.28,0,.43,0,.93.22,1.01.69.01,2.5,0,5.01,0,7.51.01.11-.03.26.08.34,1.13.95,2.29,1.86,3.44,2.79,1.9,1.57,3.82,3.13,5.73,4.7.67.52.76,1.55.32,2.25-.36.53-.98.9-1.63.86-.69.04-1.23-.43-1.73-.84-2.64-2.21-5.3-4.38-7.95-6.57-4.13-3.31-8.17-6.72-12.29-10.05-1.2.9-2.35,1.88-3.52,2.82-5.65,4.62-11.34,9.2-16.93,13.89-.29.26-.59.53-.97.66-.82.29-1.82-.08-2.22-.87-.24-.38-.19-.85-.18-1.27.05-.36.28-.67.56-.89,1.28-1.09,2.6-2.13,3.89-3.2,2.93-2.42,5.88-4.82,8.83-7.23,2.83-2.27,5.61-4.59,8.43-6.86.53-.38.99-.92,1.66-1.06Z"/>
      <path class="cls-2" d="M170.88,10.34c.11-.63.87-1.04,1.46-.79.46.17.76.64.73,1.12-.02,1.42.03,2.85.02,4.27,1.31.06,2.61.27,3.88.56,1.22.31,2.51.71,3.36,1.69.65.7.88,1.69.78,2.63-.4,2.93-.8,5.87-1.18,8.81-.41,3.12-.85,6.24-1.24,9.37-.09.62-.11,1.26-.37,1.84-.35.8-1.08,1.38-1.86,1.73-1.06.48-2.23.6-3.37.72,0,1.17,0,2.34,0,3.51,0,.37-.22.73-.54.91-.47.28-1.14.15-1.45-.3-.21-.3-.19-.69-.24-1.04-.01-1.05,0-2.1-.01-3.15-.98-.06-1.97-.23-2.92-.51-.84-.23-1.67-.7-2.13-1.47-.29-.44-.39-.97-.46-1.49-.86-6.42-1.73-12.85-2.6-19.27-.01-.86.23-1.77.86-2.39.86-.9,2.09-1.3,3.27-1.59,1.3-.31,2.63-.5,3.97-.56-.02-1.13-.02-2.27-.03-3.4,0-.4,0-.8.05-1.19ZM166.53,17.71c-.56.22-1.15.46-1.54.94-.28.4-.12.9-.09,1.34,2.1-.37,4.26-.34,6.36.04.29.08.66.1.83.37-.47.06-.93.13-1.4.18-1.87.21-3.73.56-5.54,1.06.23,1.43.41,2.87.59,4.31.45-.11.91-.17,1.37-.22,1.46-.07,2.93,0,4.36.31.37.08.75.17,1.09.36-.38.16-.79.17-1.19.24-1.82.2-3.63.56-5.36,1.17.24,1.44.39,2.9.58,4.35,1.62-.12,3.27-.01,4.86.32.4.09.82.19,1.17.43-.24.17-.55.16-.83.21-1.67.15-3.32.42-4.95.82.19,1.56.41,3.11.6,4.67.03.27.08.56.29.75.34.33.81.44,1.26.53,1.38.29,2.8.37,4.21.28,1.01-.07,2.07-.18,2.93-.75.23-.14.35-.39.37-.65.06-.5.15-1,.18-1.51-1.26-.33-2.55-.57-3.84-.73-.42-.06-.85-.07-1.24-.24.3-.29.71-.37,1.1-.47,1.38-.31,2.81-.41,4.22-.25.16-1.52.38-3.04.59-4.55-1.28-.39-2.59-.65-3.91-.87-.66-.12-1.34-.19-1.99-.37.13-.24.44-.27.67-.35,1.78-.43,3.66-.56,5.47-.25.13-1.47.41-2.92.55-4.38-1.87-.61-3.82-.94-5.78-1.1-.28-.02-.55-.06-.81-.14-.05-.27.24-.33.44-.41.8-.24,1.65-.32,2.48-.41,1.33-.06,2.69-.12,3.98.25.13-1.14.29-2.28.45-3.42.02-.28.06-.58-.11-.83-.26-.38-.68-.6-1.08-.79-1.51-.62-3.15-.81-4.76-.94-2.2-.08-4.45.01-6.57.69Z"/>
      <path class="cls-4" d="M151.77,48.74c.1-.03.2-.05.3-.05,13.27,0,26.55,0,39.82,0,.41.01.83.24,1,.62.18.39.08.84.11,1.26-.03.52.12,1.11-.24,1.55-.36.42-.96.39-1.46.4-5.75.02-11.5,0-17.26.01-7.23,0-14.47,0-21.7,0-.4,0-.85-.09-1.12-.41-.15-.2-.26-.44-.24-.7,0-.57,0-1.14,0-1.72,0-.46.37-.87.81-.97Z"/>
      <path class="cls-4" d="M166.53,17.71c2.12-.68,4.36-.77,6.57-.69,1.61.13,3.25.32,4.76.94.41.18.83.41,1.08.79.17.24.13.55.11.83-.16,1.14-.32,2.28-.45,3.42-1.29-.37-2.65-.32-3.98-.25-.83.09-1.67.17-2.48.41-.19.08-.49.14-.44.41.26.08.54.12.81.14,1.96.16,3.91.49,5.78,1.1-.15,1.46-.42,2.92-.55,4.38-1.81-.31-3.69-.18-5.47.25-.24.08-.54.11-.67.35.65.19,1.33.25,1.99.37,1.32.22,2.63.47,3.91.87-.2,1.52-.43,3.03-.59,4.55-1.41-.16-2.84-.06-4.22.25-.39.1-.8.18-1.1.47.39.17.83.18,1.24.24,1.3.16,2.58.4,3.84.73-.03.5-.11,1-.18,1.51-.03.26-.15.51-.37.65-.86.57-1.92.68-2.93.75-1.41.09-2.83.01-4.21-.28-.45-.1-.92-.2-1.26-.53-.21-.19-.26-.48-.29-.75-.19-1.56-.41-3.11-.6-4.67,1.62-.4,3.28-.67,4.95-.82.28-.04.59-.04.83-.21-.35-.24-.77-.34-1.17-.43-1.6-.33-3.24-.44-4.86-.32-.18-1.45-.34-2.9-.58-4.35,1.73-.61,3.54-.97,5.36-1.17.4-.06.81-.07,1.19-.24-.33-.2-.71-.28-1.09-.36-1.43-.31-2.9-.38-4.36-.31-.46.05-.92.11-1.37.22-.19-1.44-.36-2.88-.59-4.31,1.81-.5,3.67-.86,5.54-1.06.47-.06.94-.12,1.4-.18-.18-.27-.55-.29-.83-.37-2.1-.37-4.26-.41-6.36-.04-.03-.44-.19-.94.09-1.34.38-.48.98-.72,1.54-.94Z"/>
      <path class="cls-4" d="M157.85,19.36c.12-.08.26-.12.4-.16-.05.48-.27.92-.36,1.39-.3,1.31.1,2.71.96,3.72.89,1.04,1.64,2.2,2.18,3.47.27.7.4,1.45.44,2.2-.03,1.55-.63,3.02-1.36,4.36-.62,1.21-1.53,2.26-2.01,3.54-.26.64-.49,1.32-.47,2.02.07,1.11.55,2.35,1.64,2.82.14-.3.03-.63,0-.95-.1-1.31.17-2.65.8-3.8.52-.96,1.35-1.71,2.28-2.25.16,0,.11.17.09.27-.17.78-.4,1.56-.37,2.37-.04,1.56.58,3.02.86,4.53.1,1.02.01,2.08-.38,3.04-.17.37-.35.85-.83.87-1.39.11-2.79,0-4.18.02-1.26-.08-2.51-.33-3.71-.72-1.82-.62-3.48-1.78-4.58-3.37-.94-1.31-1.32-2.94-1.28-4.53.03-1.14,0-2.29-.27-3.39-.05-.21-.15-.43-.09-.64,1.07.52,1.93,1.42,2.43,2.49.3.62.5,1.31.99,1.82.18.19.54.36.72.08.48-.7.53-1.63.35-2.44-.33-1.43-1.28-2.59-1.91-3.89-.44-.87-.65-1.86-.57-2.83.08-.82.23-1.64.58-2.39.3-.68.76-1.27,1.26-1.81.15-.15.29-.35.52-.33-.16,1.41-.14,2.91.51,4.21.49,1.12,1.48,1.89,2.17,2.87.27.34.34.77.48,1.17.22-.17.41-.38.52-.64.53-1.05.84-2.26.61-3.43-.18-1.13-.75-2.15-1-3.27-.12-.52-.19-1.06-.2-1.59.07-1.14.33-2.31,1.03-3.23.48-.63,1.09-1.16,1.75-1.59Z"/>
      <path class="cls-4" d="M185.71,19.2c.38.09.68.37.99.58.64.5,1.22,1.11,1.58,1.85.52,1.1.62,2.36.49,3.56-.16,1.28-.85,2.42-1.08,3.68-.27,1.3.03,2.68.7,3.81.1.16.24.28.39.4.13-.39.19-.8.43-1.14.58-.84,1.38-1.49,1.91-2.36.43-.68.71-1.46.83-2.25.15-.83.08-1.67-.01-2.5.39.06.61.44.86.71.93,1.05,1.41,2.45,1.47,3.85.04.63.02,1.28-.17,1.89-.36,1.23-1.19,2.24-1.76,3.37-.51,1.06-.7,2.32-.31,3.45.09.22.2.49.45.58.23-.01.41-.18.56-.34.51-.53.69-1.26,1.02-1.89.28-.57.64-1.1,1.13-1.51.36-.31.74-.63,1.2-.77-.13.74-.33,1.47-.34,2.22,0,.71,0,1.43,0,2.14-.08,1.29-.37,2.61-1.05,3.73-1.24,2.05-3.37,3.47-5.66,4.07-1.18.3-2.4.51-3.62.48-1.14,0-2.28,0-3.42,0-.2,0-.42-.06-.53-.24-.59-.89-.8-1.96-.84-3.01.02-.87.31-1.7.54-2.53.33-1.23.58-2.53.33-3.8-.08-.48-.25-.94-.33-1.43.03-.2.19-.06.29,0,.58.41,1.11.88,1.58,1.42.97,1.23,1.34,2.83,1.3,4.37-.02.38-.14.76-.05,1.13.72-.22,1.19-.89,1.45-1.56.21-.76.37-1.58.13-2.35-.23-.79-.58-1.55-.99-2.26-1.02-1.6-2.04-3.25-2.5-5.11-.19-.67-.16-1.38-.14-2.07.12-1.46.87-2.77,1.67-3.96.49-.75,1.19-1.36,1.56-2.2.46-.97.47-2.11.16-3.12-.09-.3-.21-.59-.24-.91Z"/>
      <path class="cls-2" d="M0,11.63h7.9c5.1,0,8.55.23,10.34.7,1.8.47,3.16,1.24,4.1,2.31.94,1.07,1.52,2.26,1.75,3.57.23,1.31.35,3.89.35,7.73v14.22c0,3.64-.17,6.08-.51,7.31-.34,1.23-.94,2.19-1.79,2.88s-1.91,1.18-3.16,1.45-3.14.41-5.67.41H0V11.63ZM10.55,18.57v26.7c1.52,0,2.46-.31,2.81-.92s.53-2.27.53-4.98v-15.77c0-1.84-.06-3.02-.18-3.54-.12-.52-.38-.9-.8-1.14-.42-.24-1.2-.36-2.36-.36Z"/>
      <path class="cls-2" d="M53.89,35.4c0,4.08-.1,6.97-.29,8.66-.19,1.7-.79,3.25-1.81,4.65-1.01,1.4-2.38,2.48-4.1,3.23-1.72.75-3.73,1.13-6.02,1.13s-4.12-.36-5.85-1.07c-1.73-.71-3.12-1.78-4.17-3.2s-1.68-2.97-1.88-4.64-.3-4.6-.3-8.77v-6.95c0-4.08.1-6.97.29-8.66.19-1.7.79-3.25,1.81-4.65,1.01-1.4,2.38-2.48,4.1-3.23,1.72-.75,3.73-1.13,6.02-1.13,2.17,0,4.12.36,5.85,1.07,1.73.71,3.12,1.78,4.17,3.2,1.05,1.42,1.68,2.97,1.88,4.64.2,1.67.3,4.6.3,8.77v6.95ZM43.33,22.06c0-1.89-.1-3.1-.31-3.62-.21-.53-.64-.79-1.29-.79-.55,0-.97.21-1.27.64-.29.43-.44,1.68-.44,3.77v18.95c0,2.36.1,3.81.29,4.36.19.55.64.83,1.34.83s1.18-.32,1.38-.95.3-2.15.3-4.54v-18.65Z"/>
      <path class="cls-2" d="M82.77,11.63v40.59h-9.25l-5.49-18.45v18.45h-8.83V11.63h8.83l5.92,18.28V11.63h8.83Z"/>
      <path class="cls-2" d="M88.4,11.63h17.6v8.12h-7.05v7.7h6.59v7.72h-6.59v8.93h7.75v8.12h-18.3V11.63Z"/>
      <path class="cls-2" d="M111.12,11.63h7.47c4.98,0,8.35.19,10.12.58,1.76.38,3.2,1.37,4.31,2.95s1.67,4.1,1.67,7.56c0,3.16-.39,5.28-1.18,6.37-.79,1.09-2.33,1.74-4.64,1.96,2.09.52,3.49,1.21,4.21,2.08s1.17,1.67,1.34,2.39.26,2.73.26,6v10.71h-9.8v-13.49c0-2.17-.17-3.52-.51-4.04s-1.24-.78-2.7-.78v18.3h-10.55V11.63ZM121.67,18.57v9.03c1.19,0,2.02-.16,2.49-.49s.71-1.38.71-3.17v-2.23c0-1.29-.23-2.13-.69-2.53s-1.3-.6-2.52-.6Z"/>
      <path class="cls-2" d="M232.24,11.63v40.59h-10.55v-17.05h-3.16v17.05h-10.55V11.63h10.55v14.52h3.16v-14.52h10.55Z"/>
      <path class="cls-2" d="M261.99,35.4c0,4.08-.1,6.97-.29,8.66s-.79,3.25-1.81,4.65c-1.01,1.4-2.38,2.48-4.1,3.23-1.72.75-3.73,1.13-6.02,1.13s-4.12-.36-5.85-1.07c-1.73-.71-3.12-1.78-4.17-3.2s-1.68-2.97-1.88-4.64-.3-4.6-.3-8.77v-6.95c0-4.08.1-6.97.29-8.66.19-1.7.79-3.25,1.81-4.65s2.38-2.48,4.1-3.23c1.72-.75,3.73-1.13,6.02-1.13s4.12.36,5.85,1.07c1.73.71,3.12,1.78,4.17,3.2,1.05,1.42,1.68,2.97,1.88,4.64.2,1.67.3,4.6.3,8.77v6.95ZM251.43,22.06c0-1.89-.1-3.1-.31-3.62s-.64-.79-1.29-.79c-.55,0-.97.21-1.27.64s-.44,1.68-.44,3.77v18.95c0,2.36.1,3.81.29,4.36s.64.83,1.34.83,1.18-.32,1.38-.95.3-2.15.3-4.54v-18.65Z"/>
      <path class="cls-2" d="M291.3,11.63v27.13c0,3.08-.1,5.24-.3,6.48s-.79,2.52-1.78,3.84c-.99,1.31-2.29,2.31-3.9,2.98s-3.51,1.02-5.7,1.02c-2.42,0-4.56-.4-6.42-1.2s-3.24-1.85-4.16-3.13-1.46-2.64-1.63-4.07-.25-4.43-.25-9.01V11.63h10.55v30.44c0,1.77.1,2.9.29,3.4s.58.74,1.17.74c.67,0,1.1-.27,1.29-.81s.29-1.83.29-3.85V11.63h10.55Z"/>
      <path class="cls-2" d="M319.14,23.91h-9.8v-3.01c0-1.4-.13-2.3-.38-2.68-.25-.38-.67-.58-1.25-.58-.64,0-1.12.26-1.44.78-.33.52-.49,1.3-.49,2.36,0,1.35.18,2.38.55,3.06.35.69,1.34,1.51,2.98,2.48,4.7,2.79,7.66,5.08,8.88,6.87s1.83,4.67,1.83,8.65c0,2.89-.34,5.02-1.02,6.39s-1.98,2.52-3.92,3.45c-1.94.93-4.2,1.39-6.77,1.39-2.82,0-5.24-.54-7.23-1.6-2-1.07-3.31-2.43-3.92-4.09s-.93-4-.93-7.04v-2.66h9.8v4.94c0,1.52.14,2.5.41,2.93s.76.65,1.47.65,1.22-.28,1.57-.83.51-1.37.51-2.46c0-2.39-.33-3.95-.98-4.69-.67-.74-2.31-1.96-4.94-3.69-2.62-1.74-4.36-3-5.21-3.79-.85-.79-1.56-1.87-2.12-3.26-.56-1.39-.84-3.16-.84-5.32,0-3.11.4-5.38,1.19-6.82.79-1.44,2.08-2.56,3.85-3.37,1.77-.81,3.91-1.22,6.42-1.22,2.74,0,5.08.44,7.01,1.33,1.93.89,3.21,2,3.84,3.35.63,1.35.94,3.63.94,6.86v1.6Z"/>
      <path class="cls-2" d="M324.71,11.63h17.6v8.12h-7.04v7.7h6.59v7.72h-6.59v8.93h7.75v8.12h-18.3V11.63Z"/>
      <path class="cls-3" d="M185.13,19.2c.38.09.68.37.99.58.64.5,1.22,1.11,1.58,1.85.52,1.1.62,2.36.49,3.56-.16,1.28-.85,2.42-1.08,3.68-.27,1.3.03,2.68.7,3.81.1.16.24.28.39.4.13-.39.19-.8.43-1.14.58-.84,1.38-1.49,1.91-2.36.43-.68.71-1.46.83-2.25.15-.83.08-1.67-.01-2.5.39.06.61.44.86.71.93,1.05,1.41,2.45,1.47,3.85.04.63.02,1.28-.17,1.89-.36,1.23-1.19,2.24-1.76,3.37-.51,1.06-.7,2.32-.31,3.45.09.22.2.49.45.58.23-.01.41-.18.56-.34.51-.53.69-1.26,1.02-1.89.28-.57.64-1.1,1.13-1.51.36-.31.74-.63,1.2-.77-.13.74-.33,1.47-.34,2.22,0,.71,0,1.43,0,2.14-.08,1.29-.37,2.61-1.05,3.73-1.24,2.05-3.37,3.47-5.66,4.07-1.18.3-2.4.51-3.62.48-1.14,0-2.28,0-3.42,0-.2,0-.42-.06-.53-.24-.59-.89-.8-1.96-.84-3.01.02-.87.31-1.7.54-2.53.33-1.23.58-2.53.33-3.8-.08-.48-.25-.94-.33-1.43.03-.2.19-.06.29,0,.58.41,1.11.88,1.58,1.42.97,1.23,1.34,2.83,1.3,4.37-.02.38-.14.76-.05,1.13.72-.22,1.19-.89,1.45-1.56.21-.76.37-1.58.13-2.35-.23-.79-.58-1.55-.99-2.26-1.02-1.6-2.04-3.25-2.5-5.11-.19-.67-.16-1.38-.14-2.07.12-1.46.87-2.77,1.67-3.96.49-.75,1.19-1.36,1.56-2.2.46-.97.47-2.11.16-3.12-.09-.3-.21-.59-.24-.91Z"/>
      <path class="cls-1" d="M158.82,19.2c-.38.09-.68.37-.99.58-.64.5-1.22,1.11-1.58,1.85-.52,1.1-.62,2.36-.49,3.56.16,1.28.85,2.42,1.08,3.68.27,1.3-.03,2.68-.7,3.81-.1.16-.24.28-.39.4-.13-.39-.19-.8-.43-1.14-.58-.84-1.38-1.49-1.91-2.36-.43-.68-.71-1.46-.83-2.25-.15-.83-.08-1.67.01-2.5-.39.06-.61.44-.86.71-.93,1.05-1.41,2.45-1.47,3.85-.04.63-.02,1.28.17,1.89.36,1.23,1.19,2.24,1.76,3.37.51,1.06.7,2.32.31,3.45-.09.22-.2.49-.45.58-.23-.01-.41-.18-.56-.34-.51-.53-.69-1.26-1.02-1.89-.28-.57-.64-1.1-1.13-1.51-.36-.31-.74-.63-1.2-.77.13.74.33,1.47.34,2.22,0,.71,0,1.43,0,2.14.08,1.29.37,2.61,1.05,3.73,1.24,2.05,3.37,3.47,5.66,4.07,1.18.3,2.4.51,3.62.48,1.14,0,2.28,0,3.42,0,.2,0,.42-.06.53-.24.59-.89.8-1.96.84-3.01-.02-.87-.31-1.7-.54-2.53-.33-1.23-.58-2.53-.33-3.8.08-.48.25-.94.33-1.43-.03-.2-.19-.06-.29,0-.58.41-1.11.88-1.58,1.42-.97,1.23-1.34,2.83-1.3,4.37.02.38.14.76.05,1.13-.72-.22-1.19-.89-1.45-1.56-.21-.76-.37-1.58-.13-2.35.23-.79.58-1.55.99-2.26,1.02-1.6,2.04-3.25,2.5-5.11.19-.67.16-1.38.14-2.07-.12-1.46-.87-2.77-1.67-3.96-.49-.75-1.19-1.36-1.56-2.2-.46-.97-.47-2.11-.16-3.12.09-.3.21-.59.24-.91Z"/>
    </g>
  </g>
</svg>